<?xml version="1.0" encoding="UTF-8"?>
<svg xmlns="http://www.w3.org/2000/svg" xmlns:xlink="http://www.w3.org/1999/xlink" width="20px" height="20px" viewBox="0 0 20 20" version="1.1">
<g id="surface1">
<path style=" stroke:none;fill-rule:evenodd;fill:rgb(0%,0%,0%);fill-opacity:1;" d="M 1.40625 1.40625 C 0 2.8125 0 5.074219 0 9.601562 L 0 10.398438 C 0 14.925781 0 17.1875 1.40625 18.59375 C 2.8125 20 5.074219 20 9.601562 20 L 10.398438 20 C 14.925781 20 17.1875 20 18.59375 18.59375 C 20 17.1875 20 14.925781 20 10.398438 L 20 9.601562 C 20 5.074219 20 2.8125 18.59375 1.40625 C 17.1875 0 14.925781 0 10.398438 0 L 9.601562 0 C 5.074219 0 2.8125 0 1.40625 1.40625 Z M 3.375 6.082031 C 3.484375 11.285156 6.082031 14.410156 10.640625 14.410156 L 10.898438 14.410156 L 10.898438 11.433594 C 12.574219 11.601562 13.839844 12.824219 14.351562 14.410156 L 16.714844 14.410156 C 16.066406 12.042969 14.359375 10.734375 13.292969 10.234375 C 14.359375 9.617188 15.859375 8.117188 16.214844 6.082031 L 14.066406 6.082031 C 13.601562 7.734375 12.214844 9.234375 10.898438 9.375 L 10.898438 6.082031 L 8.75 6.082031 L 8.75 11.851562 C 7.417969 11.515625 5.734375 9.898438 5.660156 6.082031 Z M 3.375 6.082031 "/>
</g>
</svg>
